<?xml version="1.0" standalone="no"?>
<!DOCTYPE svg PUBLIC "-//W3C//DTD SVG 20010904//EN"
 "http://www.w3.org/TR/2001/REC-SVG-20010904/DTD/svg10.dtd">
<svg version="1.0" xmlns="http://www.w3.org/2000/svg"
 width="200.000000pt" height="200.000000pt" viewBox="0 0 200.000000 200.000000"
 preserveAspectRatio="xMidYMid meet">
<metadata>
Created by potrace 1.11, written by Peter Selinger 2001-2013
</metadata>
<g transform="translate(0.000000,200.000000) scale(0.100000,-0.100000)"
fill="#000000" stroke="none">
<path d="M674 1634 c-60 -29 -59 -17 -62 -632 -2 -381 1 -575 8 -603 16 -58
55 -79 147 -79 85 0 113 11 139 53 17 28 19 56 22 244 l4 213 148 0 c82 0 160
4 174 10 46 17 68 66 64 143 -6 116 -44 136 -265 137 l-123 0 0 120 0 120 198
0 c215 0 261 7 292 47 26 34 29 156 4 192 -34 48 -60 51 -401 51 -266 0 -323
-3 -349 -16z"/>
</g>
</svg>
