<svg xmlns="http://www.w3.org/2000/svg" viewBox="0 0 183.63 40.35"><defs><style>.cls-1{fill:#3cb6ee;}.cls-2{fill:#82d0f4;}.cls-3{isolation:isolate;}.cls-4{fill:#656565;}</style></defs><title>Asset 1</title><g id="Layer_2" data-name="Layer 2"><g id="logos"><path class="cls-1" d="M41.43,7.19a3.65,3.65,0,0,0-2.68-1.12H30.39V2.28A2.27,2.27,0,0,0,28.13,0H14.44a2.27,2.27,0,0,0-2.28,2.26s0,0,0,0v3.8H3.8A3.66,3.66,0,0,0,1.12,7.2,3.66,3.66,0,0,0,0,9.87V19H12.21A9.43,9.43,0,0,1,30.6,19h12V9.87A3.65,3.65,0,0,0,41.43,7.19ZM27.36,6.08H15.2v-3H27.36Z"/><path class="cls-2" d="M30.84,20.75v.36a9.44,9.44,0,0,1-18.87,0v-.36H0v3.39a1.09,1.09,0,0,0,1.08,1.09H4.16a18.14,18.14,0,0,0,3.24,5.7L5.84,33.58a1.09,1.09,0,0,0,.39,1.48l8.68,5.07a1.08,1.08,0,0,0,1.48-.39h0l1.55-2.66a18.19,18.19,0,0,0,6.54,0L26,39.81a1.08,1.08,0,0,0,1.47.4l8.74-5a1.08,1.08,0,0,0,.4-1.47h0L35.1,31.08A18.44,18.44,0,0,0,37,28.4a18.65,18.65,0,0,0,1.39-3h3.08a1.08,1.08,0,0,0,1.1-1V20.77Z"/><path class="cls-1" d="M21.42,15.85a5.25,5.25,0,1,1-5.27,5.26,5,5,0,0,1,.1-1,2.4,2.4,0,0,0,1.83.84,2.43,2.43,0,0,0,1.07-4.55A5.17,5.17,0,0,1,21.42,15.85Z"/><g class="cls-3"><path class="cls-4" d="M56.5,6.09a18,18,0,0,1,3-.25,18.23,18.23,0,0,1,3,.25V17.24a4.73,4.73,0,0,1,2.11-1.88A7.47,7.47,0,0,1,68,14.62a9.11,9.11,0,0,1,3.53.68,7.44,7.44,0,0,1,2.81,2,9.93,9.93,0,0,1,1.86,3.44,15.86,15.86,0,0,1,.68,4.9A13.51,13.51,0,0,1,76,30.61a10,10,0,0,1-2.45,3.7,11,11,0,0,1-3.93,2.35,15.63,15.63,0,0,1-5.24.82q-.93,0-2-.08t-2.09-.23q-1.06-.15-2-.38a15.51,15.51,0,0,1-1.77-.53Zm6,26.15a4.41,4.41,0,0,0,1.08.21q.57,0,1.16,0A5.74,5.74,0,0,0,69,30.89q1.56-1.61,1.56-5a9,9,0,0,0-1-4.63,3.56,3.56,0,0,0-3.3-1.58,3.67,3.67,0,0,0-2.77,1.12,4.94,4.94,0,0,0-1.08,3.53Z"/><path class="cls-4" d="M82.7,19.69H79.87a9.53,9.53,0,0,1-.19-1.16,11.23,11.23,0,0,1-.06-1.16,9.93,9.93,0,0,1,.25-2.24h8.7V37a18,18,0,0,1-3,.25A17.75,17.75,0,0,1,82.7,37Zm-.89-8.24a16.28,16.28,0,0,1-.25-2.83,16.78,16.78,0,0,1,.25-2.83q.72-.13,1.54-.19t1.5-.06q.72,0,1.56.06T88,5.79a12.56,12.56,0,0,1,.17,1.42c0,.46,0,.94,0,1.42s0,.92,0,1.39A12.54,12.54,0,0,1,88,11.45a12.75,12.75,0,0,1-1.54.17q-.82,0-1.54,0t-1.52,0A12.77,12.77,0,0,1,81.81,11.45Z"/><path class="cls-4" d="M92.67,36.46l9.84-16.73H94.15A9.64,9.64,0,0,1,94,18.51q0-.59,0-1.18t0-1.08a8.53,8.53,0,0,1,.17-1.12h17.2l.21.51-10,16.73h9.29a9.77,9.77,0,0,1,.17,1.23q0,.59,0,1.18t0,1.08a8.61,8.61,0,0,1-.17,1.12H93Z"/><path class="cls-4" d="M115.31,15.13a11.24,11.24,0,0,1,1.18-.19,12.44,12.44,0,0,1,1.31-.06,11.25,11.25,0,0,1,1.27.06q.55.06,1.14.19a2.4,2.4,0,0,1,.23.61q.11.4.19.84c.06.3.11.58.15.87l.11.72a9.86,9.86,0,0,1,1-1.27,7.29,7.29,0,0,1,1.37-1.14,7.43,7.43,0,0,1,1.75-.82,6.94,6.94,0,0,1,2.16-.32,7.27,7.27,0,0,1,5.6,2q1.88,2,1.88,6.38V37a17.85,17.85,0,0,1-6,0V24.63a7.18,7.18,0,0,0-.7-3.51,2.56,2.56,0,0,0-2.43-1.23,5.53,5.53,0,0,0-1.48.21,3.11,3.11,0,0,0-1.37.82,4.43,4.43,0,0,0-1,1.71,9,9,0,0,0-.38,2.87V37a17.84,17.84,0,0,1-6,0Z"/><path class="cls-4" d="M144.89,27.89a4.59,4.59,0,0,0,1.77,3.68,7.14,7.14,0,0,0,4.22,1.14,16.25,16.25,0,0,0,2.94-.27,16.63,16.63,0,0,0,2.85-.78,9.85,9.85,0,0,1,.8,2,10.39,10.39,0,0,1,.38,2.54,20.57,20.57,0,0,1-7.44,1.27,14.41,14.41,0,0,1-5.22-.84,9.25,9.25,0,0,1-3.55-2.34,9.41,9.41,0,0,1-2-3.57A14.92,14.92,0,0,1,139,26.2a14.74,14.74,0,0,1,.68-4.52,10.57,10.57,0,0,1,2-3.68A9.5,9.5,0,0,1,145,15.53a10.83,10.83,0,0,1,4.58-.91,9.76,9.76,0,0,1,4.06.8,9,9,0,0,1,3,2.2,9.26,9.26,0,0,1,1.88,3.32,13.1,13.1,0,0,1,.63,4.12q0,.8-.06,1.58t-.15,1.25Zm8.58-4.18a5.33,5.33,0,0,0-1.12-3.27,3.56,3.56,0,0,0-2.89-1.25,4.17,4.17,0,0,0-3.21,1.18,5.56,5.56,0,0,0-1.31,3.34Z"/><path class="cls-4" d="M173.11,37.48a11.4,11.4,0,0,1-4.63-.87,8.77,8.77,0,0,1-3.25-2.41,10.49,10.49,0,0,1-1.94-3.61,14.75,14.75,0,0,1-.66-4.48,15.16,15.16,0,0,1,.66-4.52,10.45,10.45,0,0,1,1.94-3.65,9,9,0,0,1,3.25-2.43,11.15,11.15,0,0,1,4.63-.89,11.3,11.3,0,0,1,4.65.89,9.15,9.15,0,0,1,3.29,2.43A10,10,0,0,1,183,21.59a15.64,15.64,0,0,1,.63,4.52,15.22,15.22,0,0,1-.63,4.48,10,10,0,0,1-1.94,3.61,8.93,8.93,0,0,1-3.29,2.41A11.55,11.55,0,0,1,173.11,37.48Zm0-4.56a3.64,3.64,0,0,0,3.4-1.75,10,10,0,0,0,1-5,10,10,0,0,0-1-5,3.64,3.64,0,0,0-3.4-1.75,3.6,3.6,0,0,0-3.36,1.75,10,10,0,0,0-1,5,10,10,0,0,0,1,5A3.6,3.6,0,0,0,173.11,32.91Z"/></g></g></g></svg>